<?xml version="1.0" standalone="no"?>
<svg xmlns="http://www.w3.org/2000/svg" viewBox="0 0 188 65" width="188" height="65"><g fill="#8b50b2" color="#8b50b2" transform="translate(71.6 0) scale(0.88) "><svg width="50.0" height="44.0" x="0.0" y="0.0" viewBox="0 0 50 44"><path fill="currentColor" fill-rule="evenodd" d="M44.448 20.802l-2.514 2.514-1.677-1.676 2.515-2.514a8.433 8.433 0 0 0 2.454-5.926c0-2.215-.898-4.31-2.454-5.927a8.346 8.346 0 0 0-11.853 0l-2.514 2.514-1.676-1.676 2.514-2.514c4.19-4.19 11.014-4.19 15.265 0 4.13 4.13 4.13 11.015-.06 15.205zm-7.603-2.574l2.514-2.514c.659-.659 1.078-1.557 1.078-2.514 0-.958-.36-1.856-1.078-2.515-.718-.658-1.556-1.077-2.514-1.077-.958 0-1.855.36-2.514 1.077L31.817 13.2l-1.676-1.677 2.514-2.514a5.961 5.961 0 0 1 8.44 0c1.138 1.138 1.736 2.634 1.736 4.25 0 1.617-.598 3.113-1.736 4.25l-2.514 2.515-1.736-1.796zm-3.412-3.352l2.514-2.514c.48-.48 1.257-.48 1.676 0 .24.239.36.538.36.838 0 .299-.12.598-.36.838l-2.454 2.514-1.736-1.676zM3.861 3.86a13.151 13.151 0 0 1 18.617 0l2.515 2.514 2.574-2.514a13.151 13.151 0 0 1 18.617 0c5.088 5.148 5.088 13.47 0 18.677l-4.19 4.19-21.192-21.19c-4.25-4.191-11.074-4.191-15.265 0-4.19 4.25-4.19 11.074 0 15.264L26.67 41.993l-1.676 1.677L3.86 22.478a13.151 13.151 0 0 1 0-18.617zm9.279.958c2.215 0 4.37.898 5.926 2.454l21.192 21.192-1.677 1.676-21.19-21.192c-1.138-1.137-2.635-1.736-4.251-1.736-1.616 0-3.113.599-4.25 1.736-1.138 1.138-1.736 2.634-1.736 4.25 0 1.617.598 3.113 1.736 4.25l21.19 21.192-1.675 1.616L7.214 19.126A8.433 8.433 0 0 1 4.759 13.2c0-2.215.898-4.37 2.455-5.927A8.433 8.433 0 0 1 13.14 4.82zm2.574 5.806l21.192 21.192-1.737 1.676-21.191-21.191a1.157 1.157 0 0 0-1.676 0 1.157 1.157 0 0 0 0 1.676l21.131 21.191-1.676 1.676-21.132-21.131c-1.376-1.377-1.376-3.652 0-5.089 1.377-1.376 3.652-1.376 5.089 0z"></path></svg></g><path fill="#8b50b2" fill-rule="nonzero" d="M8.42 17.88Q5.90 17.88 4.01 16.78Q2.11 15.67 1.08 13.73Q0.05 11.78 0 9.26L0 9.26Q0.05 6.74 1.08 4.80Q2.11 2.86 4.01 1.75Q5.90 0.65 8.42 0.65L8.42 0.65Q10.94 0.65 12.83 1.75Q14.71 2.86 15.76 4.81Q16.80 6.77 16.85 9.26L16.85 9.26Q16.80 11.76 15.76 13.72Q14.71 15.67 12.83 16.78Q10.94 17.88 8.42 17.88L8.42 17.88ZM8.42 15.84Q10.34 15.84 11.76 14.98Q13.18 14.11 13.92 12.62Q14.66 11.14 14.66 9.26L14.66 9.26Q14.66 7.39 13.92 5.90Q13.18 4.42 11.76 3.55Q10.34 2.69 8.42 2.69L8.42 2.69Q6.48 2.69 5.08 3.55Q3.67 4.42 2.93 5.90Q2.18 7.39 2.18 9.26L2.18 9.26Q2.18 11.14 2.93 12.62Q3.67 14.11 5.08 14.98Q6.48 15.84 8.42 15.84L8.42 15.84ZM20.93 17.76Q20.47 17.76 20.16 17.45Q19.85 17.14 19.85 16.68L19.85 16.68L19.85 1.10Q19.85 0.65 20.16 0.32Q20.47 0 20.93 0L20.93 0Q21.41 0 21.72 0.31Q22.03 0.62 22.03 1.10L22.03 1.10L22.03 16.68Q22.03 17.14 21.71 17.45Q21.38 17.76 20.93 17.76L20.93 17.76ZM26.90 17.76Q26.45 17.76 26.14 17.45Q25.82 17.14 25.82 16.68L25.82 16.68L25.82 1.10Q25.82 0.65 26.14 0.32Q26.45 0 26.90 0L26.90 0Q27.38 0 27.70 0.31Q28.01 0.62 28.01 1.10L28.01 1.10L28.01 16.68Q28.01 17.14 27.68 17.45Q27.36 17.76 26.90 17.76L26.90 17.76ZM34.92 17.88Q33.86 17.88 32.96 17.45Q32.06 17.02 31.54 16.19Q31.01 15.36 31.01 14.28L31.01 14.28Q31.01 12.50 32.41 11.45Q33.82 10.39 36.53 10.39L36.53 10.39L39.43 10.39L39.43 10.20Q39.43 8.62 38.65 7.92Q37.87 7.22 36.22 7.22L36.22 7.22Q35.30 7.22 34.60 7.37Q33.89 7.51 33.02 7.80L33.02 7.80Q32.83 7.85 32.71 7.85L32.71 7.85Q32.35 7.85 32.09 7.58Q31.82 7.32 31.82 6.94L31.82 6.94Q31.82 6.29 32.45 6.02L32.45 6.02Q34.49 5.16 36.60 5.16L36.60 5.16Q38.26 5.16 39.40 5.83Q40.54 6.50 41.08 7.57Q41.62 8.64 41.62 9.89L41.62 9.89L41.62 16.68Q41.62 17.14 41.29 17.45Q40.97 17.76 40.51 17.76L40.51 17.76Q40.06 17.76 39.74 17.45Q39.43 17.14 39.43 16.68L39.43 16.68L39.43 16.06Q37.66 17.88 34.92 17.88L34.92 17.88ZM35.74 15.96Q36.79 15.96 37.78 15.44Q38.76 14.93 39.43 14.16L39.43 14.16L39.43 12.14L36.82 12.14Q33.19 12.14 33.19 14.04L33.19 14.04Q33.19 14.90 33.78 15.43Q34.37 15.96 35.74 15.96L35.74 15.96ZM59.35 17.88Q56.95 17.88 55.04 16.84Q53.14 15.79 52.04 13.84Q50.95 11.88 50.95 9.26L50.95 9.26Q50.95 6.65 52.04 4.69Q53.14 2.74 55.04 1.69Q56.95 0.65 59.35 0.65L59.35 0.65Q60.98 0.65 62.27 1.03Q63.55 1.42 64.82 2.14L64.82 2.14Q65.35 2.42 65.35 3.05L65.35 3.05Q65.35 3.41 65.09 3.68Q64.82 3.96 64.39 3.96L64.39 3.96Q64.15 3.96 63.96 3.86L63.96 3.86Q62.90 3.31 61.90 3.02Q60.89 2.74 59.57 2.74L59.57 2.74Q57.50 2.74 56.05 3.59Q54.60 4.44 53.87 5.92Q53.14 7.39 53.14 9.26L53.14 9.26Q53.14 11.14 53.87 12.61Q54.60 14.09 56.05 14.94Q57.50 15.79 59.57 15.79L59.57 15.79Q60.89 15.79 61.90 15.50Q62.90 15.22 63.96 14.66L63.96 14.66Q64.15 14.57 64.39 14.57L64.39 14.57Q64.82 14.57 65.09 14.83Q65.35 15.10 65.35 15.48L65.35 15.48Q65.35 16.10 64.82 16.39L64.82 16.39Q63.55 17.11 62.27 17.50Q60.98 17.88 59.35 17.88L59.35 17.88ZM73.22 17.88Q71.38 17.88 69.98 17.09Q68.59 16.30 67.84 14.84Q67.08 13.39 67.08 11.52L67.08 11.52Q67.08 9.65 67.84 8.20Q68.59 6.74 69.98 5.95Q71.38 5.16 73.22 5.16L73.22 5.16Q75.05 5.16 76.44 5.95Q77.83 6.74 78.60 8.20Q79.37 9.65 79.37 11.52L79.37 11.52Q79.37 13.39 78.60 14.84Q77.83 16.30 76.44 17.09Q75.05 17.88 73.22 17.88L73.22 17.88ZM73.22 15.89Q74.21 15.89 75.11 15.43Q76.01 14.98 76.60 13.99Q77.18 13.01 77.18 11.50L77.18 11.50Q77.18 10.01 76.60 9.02Q76.01 8.04 75.11 7.60Q74.21 7.15 73.22 7.15L73.22 7.15Q72.22 7.15 71.32 7.60Q70.42 8.04 69.84 9.02Q69.26 10.01 69.26 11.50L69.26 11.50Q69.26 13.01 69.84 13.99Q70.42 14.98 71.32 15.43Q72.22 15.89 73.22 15.89L73.22 15.89ZM83.50 17.76Q83.04 17.76 82.73 17.45Q82.42 17.14 82.42 16.68L82.42 16.68L82.42 6.38Q82.42 5.93 82.73 5.60Q83.04 5.28 83.50 5.28L83.50 5.28Q83.95 5.28 84.28 5.60Q84.60 5.93 84.60 6.38L84.60 6.38L84.60 7.37Q85.27 6.41 86.22 5.78Q87.17 5.16 88.68 5.16L88.68 5.16Q90.02 5.16 90.98 5.88Q91.94 6.60 92.35 7.63L92.35 7.63Q93.84 5.16 96.77 5.16L96.77 5.16Q98.11 5.16 99.01 5.83Q99.91 6.50 100.34 7.56Q100.78 8.62 100.78 9.77L100.78 9.77L100.78 16.68Q100.78 17.14 100.45 17.45Q100.13 17.76 99.67 17.76L99.67 17.76Q99.22 17.76 98.90 17.45Q98.59 17.14 98.59 16.68L98.59 16.68L98.59 10.20Q98.59 8.64 98.04 7.91Q97.49 7.18 96.14 7.18L96.14 7.18Q94.92 7.18 94.12 7.81Q93.31 8.45 92.69 9.48L92.69 9.48L92.69 16.68Q92.69 17.14 92.36 17.45Q92.04 17.76 91.58 17.76L91.58 17.76Q91.13 17.76 90.82 17.45Q90.50 17.14 90.50 16.68L90.50 16.68L90.50 10.20Q90.50 8.64 89.95 7.91Q89.40 7.18 88.06 7.18L88.06 7.18Q86.83 7.18 86.03 7.81Q85.22 8.45 84.60 9.48L84.60 9.48L84.60 16.68Q84.60 17.14 84.28 17.45Q83.95 17.76 83.50 17.76L83.50 17.76ZM108.53 17.88Q107.21 17.88 106.24 17.26Q105.26 16.63 104.75 15.55Q104.23 14.47 104.23 13.18L104.23 13.18L104.23 6.36Q104.23 5.90 104.56 5.59Q104.88 5.28 105.34 5.28L105.34 5.28Q105.79 5.28 106.10 5.59Q106.42 5.90 106.42 6.36L106.42 6.36L106.42 12.94Q106.42 15.86 109.06 15.86L109.06 15.86Q110.26 15.86 111.20 15.24Q112.15 14.62 112.99 13.56L112.99 13.56L112.99 6.36Q112.99 5.90 113.32 5.59Q113.64 5.28 114.10 5.28L114.10 5.28Q114.55 5.28 114.86 5.59Q115.18 5.90 115.18 6.36L115.18 6.36L115.18 16.66Q115.18 17.11 114.86 17.44Q114.55 17.76 114.10 17.76L114.10 17.76Q113.64 17.76 113.32 17.44Q112.99 17.11 112.99 16.66L112.99 16.66L112.99 15.67Q112.08 16.68 111.02 17.28Q109.97 17.88 108.53 17.88L108.53 17.88ZM120.05 17.76Q119.59 17.76 119.28 17.45Q118.97 17.14 118.97 16.68L118.97 16.68L118.97 6.38Q118.97 5.93 119.28 5.60Q119.59 5.28 120.05 5.28L120.05 5.28Q120.50 5.28 120.83 5.60Q121.15 5.93 121.15 6.38L121.15 6.38L121.15 7.37Q122.06 6.36 123.12 5.76Q124.18 5.16 125.62 5.16L125.62 5.16Q126.94 5.16 127.91 5.78Q128.88 6.41 129.40 7.49Q129.91 8.57 129.91 9.86L129.91 9.86L129.91 16.68Q129.91 17.14 129.59 17.45Q129.26 17.76 128.81 17.76L128.81 17.76Q128.35 17.76 128.04 17.45Q127.73 17.14 127.73 16.68L127.73 16.68L127.73 10.10Q127.73 7.18 125.09 7.18L125.09 7.18Q123.89 7.18 122.94 7.80Q121.99 8.42 121.15 9.48L121.15 9.48L121.15 16.68Q121.15 17.14 120.83 17.45Q120.50 17.76 120.05 17.76L120.05 17.76ZM134.62 2.90Q134.11 2.90 133.75 2.54Q133.39 2.18 133.39 1.68L133.39 1.68L133.39 1.58Q133.39 1.08 133.75 0.72Q134.11 0.36 134.62 0.36L134.62 0.36L134.76 0.36Q135.26 0.36 135.62 0.72Q135.98 1.08 135.98 1.58L135.98 1.58L135.98 1.68Q135.98 2.18 135.62 2.54Q135.26 2.90 134.76 2.90L134.76 2.90L134.62 2.90ZM134.66 17.76Q134.21 17.76 133.90 17.45Q133.58 17.14 133.58 16.68L133.58 16.68L133.58 6.38Q133.58 5.93 133.90 5.60Q134.21 5.28 134.66 5.28L134.66 5.28Q135.14 5.28 135.46 5.59Q135.77 5.90 135.77 6.38L135.77 6.38L135.77 16.68Q135.77 17.14 135.44 17.45Q135.12 17.76 134.66 17.76L134.66 17.76ZM143.78 17.88Q140.28 17.88 140.28 14.71L140.28 14.71L140.28 7.27L138.58 7.27Q138.38 7.27 138.25 7.14Q138.12 7.01 138.12 6.82L138.12 6.82Q138.12 6.58 138.34 6.41L138.34 6.41L141.60 3.22Q141.82 3 142.01 3L142.01 3Q142.20 3 142.33 3.14Q142.46 3.29 142.46 3.48L142.46 3.48L142.46 5.40L145.18 5.40Q145.58 5.40 145.85 5.66Q146.11 5.93 146.11 6.34L146.11 6.34Q146.11 6.72 145.85 7.00Q145.58 7.27 145.18 7.27L145.18 7.27L142.46 7.27L142.46 14.52Q142.46 15.46 142.91 15.71Q143.35 15.96 144.02 15.96L144.02 15.96Q144.50 15.96 144.98 15.82L144.98 15.82Q145.08 15.79 145.19 15.77Q145.30 15.74 145.46 15.74L145.46 15.74Q145.80 15.74 146.06 16.00Q146.33 16.25 146.33 16.61L146.33 16.61Q146.33 17.16 145.78 17.45L145.78 17.45Q144.84 17.88 143.78 17.88L143.78 17.88ZM151.85 17.88Q150.79 17.88 149.89 17.45Q148.99 17.02 148.46 16.19Q147.94 15.36 147.94 14.28L147.94 14.28Q147.94 12.50 149.34 11.45Q150.74 10.39 153.46 10.39L153.46 10.39L156.36 10.39L156.36 10.20Q156.36 8.62 155.58 7.92Q154.80 7.22 153.14 7.22L153.14 7.22Q152.23 7.22 151.52 7.37Q150.82 7.51 149.95 7.80L149.95 7.80Q149.76 7.85 149.64 7.85L149.64 7.85Q149.28 7.85 149.02 7.58Q148.75 7.32 148.75 6.94L148.75 6.94Q148.75 6.29 149.38 6.02L149.38 6.02Q151.42 5.16 153.53 5.16L153.53 5.16Q155.18 5.16 156.32 5.83Q157.46 6.50 158.00 7.57Q158.54 8.64 158.54 9.89L158.54 9.89L158.54 16.68Q158.54 17.14 158.22 17.45Q157.90 17.76 157.44 17.76L157.44 17.76Q156.98 17.76 156.67 17.45Q156.36 17.14 156.36 16.68L156.36 16.68L156.36 16.06Q154.58 17.88 151.85 17.88L151.85 17.88ZM152.66 15.96Q153.72 15.96 154.70 15.44Q155.69 14.93 156.36 14.16L156.36 14.16L156.36 12.14L153.74 12.14Q150.12 12.14 150.12 14.04L150.12 14.04Q150.12 14.90 150.71 15.43Q151.30 15.96 152.66 15.96L152.66 15.96ZM163.30 17.76Q162.84 17.76 162.53 17.45Q162.22 17.14 162.22 16.68L162.22 16.68L162.22 6.38Q162.22 5.93 162.53 5.60Q162.84 5.28 163.30 5.28L163.30 5.28Q163.75 5.28 164.08 5.60Q164.40 5.93 164.40 6.38L164.40 6.38L164.40 7.42Q166.08 5.16 168.17 5.16L168.17 5.16L168.29 5.16Q168.74 5.16 169.04 5.47Q169.34 5.78 169.34 6.24L169.34 6.24Q169.34 6.70 169.03 6.98Q168.72 7.27 168.24 7.27L168.24 7.27L168.12 7.27Q166.97 7.27 166.01 7.84Q165.05 8.40 164.40 9.38L164.40 9.38L164.40 16.68Q164.40 17.14 164.08 17.45Q163.75 17.76 163.30 17.76L163.30 17.76ZM172.44 2.90Q171.94 2.90 171.58 2.54Q171.22 2.18 171.22 1.68L171.22 1.68L171.22 1.58Q171.22 1.08 171.58 0.72Q171.94 0.36 172.44 0.36L172.44 0.36L172.58 0.36Q173.09 0.36 173.45 0.72Q173.81 1.08 173.81 1.58L173.81 1.58L173.81 1.68Q173.81 2.18 173.45 2.54Q173.09 2.90 172.58 2.90L172.58 2.90L172.44 2.90ZM172.49 17.76Q172.03 17.76 171.72 17.45Q171.41 17.14 171.41 16.68L171.41 16.68L171.41 6.38Q171.41 5.93 171.72 5.60Q172.03 5.28 172.49 5.28L172.49 5.28Q172.97 5.28 173.28 5.59Q173.59 5.90 173.59 6.38L173.59 6.38L173.59 16.68Q173.59 17.14 173.27 17.45Q172.94 17.76 172.49 17.76L172.49 17.76ZM180.50 17.88Q179.45 17.88 178.55 17.45Q177.65 17.02 177.12 16.19Q176.59 15.36 176.59 14.28L176.59 14.28Q176.59 12.50 178.00 11.45Q179.40 10.39 182.11 10.39L182.11 10.39L185.02 10.39L185.02 10.20Q185.02 8.62 184.24 7.92Q183.46 7.22 181.80 7.22L181.80 7.22Q180.89 7.22 180.18 7.37Q179.47 7.51 178.61 7.80L178.61 7.80Q178.42 7.85 178.30 7.85L178.30 7.85Q177.94 7.85 177.67 7.58Q177.41 7.32 177.41 6.94L177.41 6.94Q177.41 6.29 178.03 6.02L178.03 6.02Q180.07 5.16 182.18 5.16L182.18 5.16Q183.84 5.16 184.98 5.83Q186.12 6.50 186.66 7.57Q187.20 8.64 187.20 9.89L187.20 9.89L187.20 16.68Q187.20 17.14 186.88 17.45Q186.55 17.76 186.10 17.76L186.10 17.76Q185.64 17.76 185.33 17.45Q185.02 17.14 185.02 16.68L185.02 16.68L185.02 16.06Q183.24 17.88 180.50 17.88L180.50 17.88ZM181.32 15.96Q182.38 15.96 183.36 15.44Q184.34 14.93 185.02 14.16L185.02 14.16L185.02 12.14L182.40 12.14Q178.78 12.14 178.78 14.04L178.78 14.04Q178.78 14.90 179.36 15.43Q179.95 15.96 181.32 15.96L181.32 15.96Z" transform="translate(0, 46.72)"></path></svg>